PathFileType	4	(X/Y/Z)	Beam_150-250.trc
DataRate	CameraRate	NumFrames	NumMarkers	Units	OrigDataRate	OrigDataStartFrame	OrigNumFrames
60	60	7	21	m	60	37	99
Frame#	Time	RHip			RKnee			RAnkle			RBigToe			RSmallToe			RHeel			LHip			LKnee			LAnkle			LBigToe			LSmallToe			LHeel			Neck			Head			Nose			RShoulder			RElbow			RWrist			LShoulder			LElbow			LWrist		
		X1	Y1	Z1	X2	Y2	Z2	X3	Y3	Z3	X4	Y4	Z4	X5	Y5	Z5	X6	Y6	Z6	X7	Y7	Z7	X8	Y8	Z8	X9	Y9	Z9	X10	Y10	Z10	X11	Y11	Z11	X12	Y12	Z12	X13	Y13	Z13	X14	Y14	Z14	X15	Y15	Z15	X16	Y16	Z16	X17	Y17	Z17	X18	Y18	Z18	X19	Y19	Z19	X20	Y20	Z20	X21	Y21	Z21	
37	3.1333333333333333	-0.2011191781861918	0.9648547421223304	-1.098073192327251	-0.5000605265736944	0.6858180210889228	-0.9886420586606314	-0.6839234847309196	0.34704982733507705	-1.0595213993913797	-0.7385255068565642	0.2862449645709291	-0.9303753622565296	-0.7631201965104962	0.2877488681648507	-0.9818429333187441	-0.693861149198248	0.3083178466768252	-1.1027526121037474	-0.011633701621268075	0.8619590882005291	-1.1025532679714818	-0.06586492844355732	0.508668720549359	-0.9144287628204903	-0.016363632216605792	0.14331144951371208	-1.1555336889552021	-0.008568109765380472	0.07490876570757321	-1.0005636794245696	0.020372586926822246	0.07795936770102757	-1.0369157259656132	-0.008903253709694971	0.11378784831969148	-1.2098004368340858	0.22958333074919324	1.3341915654115781	-1.060730871043323	0.38334895988973744	1.524861682204239	-0.9199532347153084	0.3104957928997197	1.3914937996436318	-0.9020013694791721	0.07211880129099602	1.4053565342917804	-1.1140151313537674	-0.1820737470197391	1.450653405677648	-1.192940378727009	-0.2475473246521147	1.6086613323517613	-1.0127313469445343	0.3338128096565529	1.203267080968525	-1.0880698010089445	0.3649950395111576	0.9041791079035717	-1.0993470676404504	0.3479448242575178	0.6606461750190894	-0.9962521640864717
38	3.15	-0.20150552623664506	0.9667323307785284	-1.0898697381111613	-0.506628221655656	0.6934182890631284	-0.9759053946485263	-0.7058174885738894	0.3613836268480471	-1.0421705001774302	-0.7625035243128575	0.30342480491555696	-0.91083234797893	-0.7829157776361628	0.30055363181707917	-0.9673128569939863	-0.7160053668215299	0.3219825920298682	-1.0861623702408452	-0.018648513454163528	0.8619355576425436	-1.1054850031603345	-0.06763950389516916	0.50894646484023	-0.9098645516089402	-0.0169332111129079	0.14415267323503872	-1.1544073283595941	-0.009087059057341836	0.07586009186445114	-0.9988409105140891	0.020208871678772243	0.07868060144671081	-1.0358583814760294	-0.010078800818579958	0.11555548184687367	-1.2080970172619434	0.23236462584609324	1.33015438792014	-1.0535369434099628	0.38973016069115773	1.5171546262425855	-0.9234953919507098	0.3157059225353654	1.3872241358099806	-0.8973974043530026	0.07365500768409057	1.403459799034593	-1.1056744929608977	-0.17958919119797442	1.4565925381255977	-1.1801149127946964	-0.2337628781249225	1.618582073220738	-0.9983796030147201	0.3301572732751421	1.198869724921115	-1.0953854198261972	0.3680275917154381	0.8998764188120203	-1.0992479038809613	0.35383613722471624	0.6547466836247549	-0.9948844464917177
39	3.1666666666666665	-0.2012111503575068	0.969777665435889	-1.0804006412322429	-0.5120265439736718	0.7014134909579819	-0.9623327290941063	-0.7269192994114211	0.3759470449349987	-1.0240969367297825	-0.7833094476747646	0.3202595298076528	-0.889245074699425	-0.799998462366561	0.3131203930810945	-0.9524530110185194	-0.7365196872751699	0.3371735611190703	-1.0691566896903002	-0.025918337457981888	0.8619747181488094	-1.108967840250485	-0.0686191820639827	0.5092684292020666	-0.9043776667100694	-0.01730420628472132	0.1446581556936093	-1.1529406200802494	-0.00940744501733019	0.0770368229126108	-0.9970989199970491	0.020255038772042135	0.07965261839107605	-1.0344464030873899	-0.011213314402518545	0.11660740338208797	-1.205628321941348	0.2351064848503137	1.3266094446779548	-1.0440896591851507	0.3961611608288874	1.5107138883361733	-0.9259895909693109	0.3199582934640873	1.382952552600405	-0.8914572740216729	0.07498712697019247	1.4017445737751555	-1.0957559544243332	-0.1770762863412763	1.4625069053172295	-1.1657309401071119	-0.21965747895345605	1.6273566527519292	-0.9826240870115748	0.32494254988536553	1.19414801771416	-1.1072300523163559	0.3703656661378358	0.8961950249029208	-1.0988343088522725	0.3604397342217363	0.6498763087414996	-0.9936319131788715
40	3.183333333333333	-0.2018315562317667	0.9731771384198152	-1.0731395687694782	-0.5166725595460859	0.7096602085715924	-0.9487518339174503	-0.746617849657731	0.39036311824291314	-1.0061454070152833	-0.8007412131177059	0.3373255046272117	-0.865875566146954	-0.8147867388743659	0.325824947466591	-0.9378675757908389	-0.7554649945103624	0.3535815893036351	-1.052082522591441	-0.03281875115681858	0.862117721349105	-1.1118268516446759	-0.06897485044167546	0.509563215385915	-0.899553752869428	-0.01740566604743476	0.14473052389596333	-1.1516347060806937	-0.009397608223889822	0.07804330718722066	-0.9958022286452622	0.0204546414772422	0.08040658676773162	-1.0333365907056036	-0.012118371287299914	0.11669879830455421	-1.2031625655032359	0.23795277617824032	1.3237582200481959	-1.0319829990668383	0.40256315515285573	1.505846643889769	-0.9253945723631936	0.32317730078175094	1.378353218418609	-0.8840982697215781	0.07668807340677178	1.400390666778047	-1.0846398678785492	-0.17466820287678866	1.468055616106158	-1.1507609770659217	-0.2055451513134236	1.6348631537196816	-0.9655049160092767	0.31957851431935	1.1895849125027442	-1.1188701466010733	0.3721627295012295	0.8930892922947985	-1.0980328143960396	0.367139052903734	0.6458498694794622	-0.9928630237880783
41	3.2	-0.20436134039324658	0.9763977469869234	-1.0709454139172334	-0.5211104958950282	0.7179422462867229	-0.9355595495078152	-0.7642404083181722	0.4042158829764385	-0.9892358791107947	-0.8153601724325724	0.35446111940072506	-0.8424688539902788	-0.8278833499051297	0.33911677598202644	-0.9236231744907926	-0.7729872196133422	0.3703410364053458	-1.0354072118959228	-0.03885338041543169	0.8625350782732791	-1.1133028927714324	-0.06892714488362103	0.5096526962695747	-0.896310186941841	-0.01706815813382039	0.14426349370301914	-1.1507845030954078	-0.008949570942112907	0.07866030451215059	-0.9953882271089948	0.020967197450191963	0.08061069300126399	-1.0328298780736156	-0.012470423578371343	0.11590334608192754	-1.2014746458331682	0.24101139448775877	1.3216487036323383	-1.01768291040783	0.4086516222544483	1.5025023811824925	-0.9201901930631364	0.32526926391409966	1.37353036757747	-0.8752595665876841	0.0790146669434452	1.3993186660426185	-1.0737015171158426	-0.17233424911239825	1.4731599806191646	-1.1357928870399734	-0.19145857907525965	1.6410892994552273	-0.9471931585735293	0.3151274276941694	1.1854986777412415	-1.126424343404852	0.37379583802402383	0.8904288783991112	-1.0968330404497542	0.37362542388608544	0.6424716978928701	-0.9926424343640101
42	3.216666666666667	-0.20914973074023963	0.9793450353936551	-1.0749755009238033	-0.5255831247147028	0.7258994539481219	-0.9230118984889111	-0.7791597452933616	0.41704278714533943	-0.9743568136631258	-0.8277753555767444	0.3711786491383256	-0.8205306773354928	-0.8395088064650059	0.3529650574489184	-0.9091308514083803	-0.7889108362129333	0.38628909751762774	-1.0196268302045295	-0.043961259274660526	0.8634263287532591	-1.1133830827681683	-0.06873578140940172	0.5095244550196312	-0.894727077802789	-0.01630834232196245	0.14331617869105664	-1.1503265046366038	-0.008118010212723207	0.07880173637908444	-0.9960545135658101	0.021842909813459887	0.08023260159292216	-1.0328865142491201	-0.012161254845641989	0.1146681201134904	-1.2008547559588811	0.24404970401322046	1.3200262557646658	-1.0028088472596988	0.41422117434369726	1.500200024925942	-0.9100061568671399	0.32644952569610225	1.368904161439132	-0.8652522704420849	0.08162112895681087	1.3983892339860529	-1.064403053701357	-0.17005299829917406	1.4779292339737293	-1.1207812430870145	-0.1773474780875751	1.6461170637912397	-0.9283903996242113	0.31199816104808414	1.1819979674037635	-1.128127207389605	0.3755900336829934	0.8881656428719673	-1.0952253782180887	0.37988099724128754	0.6397507172705839	-0.9927734927134805
43	3.2333333333333334	-0.21587741897051616	0.9821737427702936	-1.08358037619514	-0.5298135660103921	0.7331202023266546	-0.9114381262885101	-0.791013809998346	0.42829222862606053	-0.96215605341765	-0.8381431641578567	0.3873477053827117	-0.7997184412265749	-0.8494809364355063	0.3668900588896318	-0.8936088776261475	-0.8026891086329178	0.4006514035133706	-1.0052517169470985	-0.04840015580939974	0.8648679688365435	-1.1125290350448824	-0.06875120156669362	0.5094303285866709	-0.8944374501654404	-0.015425773222187116	0.14219100417020336	-1.1500607125827886	-0.007143648910883128	0.07847404794835158	-0.9976548655227028	0.022870386004664116	0.07951767612298785	-1.0332938760637003	-0.011429353374384691	0.11367865685464144	-1.2010398632459227	0.24655071126860414	1.3185430379130512	-0.9894043362686409	0.4192593700744932	1.498183090126703	-0.8959252492779071	0.3273195535401271	1.3648989649539223	-0.854934139135158	0.08412868845301161	1.3976986922078358	-1.0565777369798808	-0.16787496176600358	1.4825257688612448	-1.105008957931892	-0.16324789530664569	1.6500624591435153	-0.9101063566296788	0.31029012576892406	1.179254580682242	-1.1237099991819948	0.3776745387239885	0.886249278406557	-1.0932965610896892	0.38595805990620297	0.6378332620352595	-0.9930276283566446
